<svg width="256" height="256" xmlns="http://www.w3.org/2000/svg" fill-rule="evenodd" image-rendering="optimizeQuality" shape-rendering="geometricPrecision">
 <defs>
  <linearGradient y2="0" x2="0" y1="1" x1="0" id="svg_23">
   <stop offset="0" stop-color="#4C261D"/>
   <stop offset="1" stop-opacity="0.99219" stop-color="#462d15"/>
  </linearGradient>
 </defs>
 <g>
  <title>Layer 1</title>
  <rect stroke="#000" stroke-width="0" id="svg_10" height="256" width="256" y="0" x="0" fill="url(#svg_23)"/>
  <path stroke="null" d="m184.32877,153.7309l0,24.20275c0,4.29538 -3.90036,7.84731 -8.61711,7.84731l-105.03824,0l0,-40.22778l105.03824,0c4.71675,0 8.61711,3.71716 8.61711,8.17772zm14.8759,-25.52443c5.35172,-6.8561 8.25432,-15.19899 8.25432,-23.70711l0,-27.42427c0,-22.7159 -20.31831,-41.13641 -45.26262,-41.13641l-127.5335,0l0,33.2891l127.5335,0c4.80744,0 8.61711,3.55193 8.61711,7.84731l0,27.42427c0,4.46056 -3.9911,8.17772 -8.61711,8.17772l-90.97873,0l0,-19.49437l-36.64546,0l0,126.87862l141.68376,0c24.49078,0 45.17188,-19.32914 45.17188,-42.21027l0,-18.00752c0,-14.786 -9.97773,-25.93742 -22.31383,-31.71966l0.09069,0.08259z" fill="#efeaeb" id="svg_6"/>
 </g>
</svg>