<svg width="768" height="256" xmlns="http://www.w3.org/2000/svg" xmlns:xlink="http://www.w3.org/1999/xlink" shape-rendering="geometricPrecision" image-rendering="optimizeQuality" fill-rule="evenodd">
 <defs>
  <linearGradient y2="0.34891" y1="0.65196" x2="0.5012" x1="0.49759" id="A">
   <stop offset="0" stop-color="#1cbbee"/>
   <stop offset="1" stop-color="#a2d9f7"/>
  </linearGradient>
  <linearGradient xlink:href="#A" y2="2313.6" y1="2589.1" x2="6590" x1="6590" id="B"/>
 </defs>
 <g>
  <title>Layer 1</title>
  <g stroke="null" id="svg_9">
   <g stroke="null" id="svg_1" fill="#e31e24">
    <path stroke="null" id="svg_2" d="m98.58922,146.33722l0,20.40136l-55.18978,0c-7.59057,0 -7.95956,0.86406 -7.95956,8.73658l0,42.48283c0,6.91246 0.79068,7.63251 7.74871,7.63251l55.40063,0l0,17.90519l-66.4175,0s-17.44777,-1.4881 -17.44777,-17.61717l0,-62.30815s0.73797,-17.32915 23.35155,-17.08914l60.51373,-0.09601l0,-0.048zm445.9461,0.48003l0,20.44936l-55.40063,0c-7.59057,0 -8.01227,0.91206 -8.01227,8.78459l0,11.13674l43.59308,0l0,18.43323l-43.59308,0l0,13.10487c0,6.96046 0.79068,7.63251 7.80142,7.63251l55.61148,0l0,18.0012l-66.68107,0s-17.50049,-1.4881 -17.50049,-17.66518l0,-62.54817s0.73797,-17.52117 23.45698,-17.28115l60.72458,0l0,-0.048zm-293.8711,96.82245l-19.97796,0l0,-97.30248l24.45851,0l53.92469,69.70065l0,-69.70065l18.92372,0l0,97.06247l-23.61511,0l-53.71384,-70.08467l0,70.32469zm413.10633,-97.30248l89.92719,0l0,17.37716l-34.36842,0l0,79.63731l-20.87407,0l0,-79.63731l-34.6847,0l0,-17.37716z"/>
    <path stroke="null" id="svg_3" fill-rule="nonzero" d="m194.0512,243.39969l-59.14321,0c-10.38432,0 -18.87101,-8.49657 -18.87101,-18.91326l0,-59.23595c0,-10.41669 8.48668,-18.91326 18.87101,-18.91326l59.14321,0c10.43704,0 18.87101,8.49657 18.87101,18.91326l0,59.23595c0,10.41669 -8.48668,18.91326 -18.87101,18.91326zm-59.14321,-80.59737c-1.31781,0 -2.47748,1.10407 -2.47748,2.44816l0,59.23595c0,1.34409 1.10696,2.44816 2.47748,2.44816l59.14321,0c1.31781,0 2.42477,-1.15208 2.42477,-2.44816l0,-59.23595c0,-1.34409 -1.10696,-2.44816 -2.42477,-2.44816l-59.14321,0z"/>
    <path stroke="null" id="svg_4" d="m646.4282,146.33722l0,20.35336l-55.13707,0c-7.53786,0 -7.95956,0.86406 -7.95956,8.73658l0,42.43483c0,6.91246 0.79068,7.63251 7.74871,7.63251l55.34792,0l0,17.90519l-66.36479,0s-17.39506,-1.4881 -17.39506,-17.61717l0,-62.26015s0.73797,-17.28115 23.29884,-17.08914l60.46101,-0.09601zm-281.27286,97.30248l-19.92525,0l0,-97.30248l24.4058,0l53.9774,69.70065l0,-69.70065l18.87101,0l0,97.06247l-23.61511,0l-53.71384,-70.08467l0,70.32469z"/>
   </g>
   <g stroke="null" id="svg_5" fill-rule="nonzero">
    <path stroke="null" id="svg_6" fill="#efeaeb" d="m550.4391,75.77252l58.77422,0l0,-19.34529l-58.77422,0l0,-11.47276l-21.29577,0l0,73.73291l96.62165,0l0,-19.92133l-75.32588,0l0,-22.99353zm-60.72458,23.56957l-58.14167,0c-2.74104,0 -5.00767,-2.06414 -5.00767,-4.5603l0,-59.18794c0,-2.49617 2.26663,-4.5603 5.00767,-4.5603l78.91032,0l0,-19.34529l-78.91032,0c-14.49588,0 -26.25073,10.70471 -26.25073,23.90559l0,59.18794c0,13.20088 11.80756,23.9536 26.25073,23.9536l79.43744,0l0,-62.30815l-21.24306,0l0,42.96286l-0.05271,-0.048zm-271.94278,-87.65384l-76.64369,0l0,19.34529l76.64369,0c2.74104,0 5.00767,2.06414 5.00767,4.5603l0,16.27308c0,2.49617 -2.26663,4.5603 -5.00767,4.5603l-55.34792,0l0,-11.42476l-21.29577,0l0,73.73291l21.29577,0l0,-42.81885l62.20052,0c2.79375,0 5.00767,2.06414 5.00767,4.5603l0,38.25855l21.24306,0l0,-37.05847c0,-9.74465 -5.95649,-13.29689 -12.07112,-15.50503c3.37359,-4.12828 5.21852,-9.16861 5.21852,-14.30495l0,-16.27308c0,-13.20088 -11.80756,-23.90559 -26.30344,-23.90559l0.05271,0zm502.76996,0l-76.64369,0l0,19.34529l76.64369,0c2.74104,0 5.00767,2.06414 5.00767,4.5603l0,16.27308c0,2.49617 -2.26663,4.5603 -5.00767,4.5603l-55.34792,0l0,-11.42476l-21.29577,0l0,73.73291l21.29577,0l0,-42.81885l62.20052,0c2.79375,0 5.00767,2.06414 5.00767,4.5603l0,38.25855l21.29577,0l0,-37.05847c0,-9.74465 -6.0092,-13.29689 -12.07112,-15.50503c3.37359,-4.12828 5.21852,-9.16861 5.21852,-14.30495l0,-16.27308c0,-13.20088 -11.80756,-23.90559 -26.30344,-23.90559zm-191.39838,19.34529l96.62165,0l0,-19.34529l-96.62165,0l0,19.34529zm-427.81306,49.05927l0,14.06494c0,2.49617 -2.26663,4.5603 -5.00767,4.5603l-61.04085,0l0,-23.37756l61.04085,0c2.74104,0 5.00767,2.16014 5.00767,4.75232zm8.64482,-14.83299c3.11003,-3.98427 4.79682,-8.83259 4.79682,-13.77692l0,-15.93706c0,-13.20088 -11.80756,-23.90559 -26.30344,-23.90559l-74.1135,0l0,19.34529l74.1135,0c2.79375,0 5.00767,2.06414 5.00767,4.5603l0,15.93706c0,2.59217 -2.31934,4.75232 -5.00767,4.75232l-52.87044,0l0,-11.32876l-21.29577,0l0,73.73291l82.33662,0c14.23232,0 26.25073,-11.23275 26.25073,-24.52963l0,-10.4647c0,-8.59257 -5.79835,-15.073 -12.96723,-18.43323l0.05271,0.048zm231.776,-53.57157l-22.719,0l-52.60688,106.99913l22.61358,0l41.37916,-84.10161l41.43187,84.10161l22.66629,0l-52.44874,-106.37509l-0.31627,-0.62404z"/>
    <path stroke="null" id="svg_7" fill="url(#A)" d="m330.47065,74.62044l-21.87561,44.06694s16.18268,-6.14441 21.87561,-6.14441c5.74564,0 21.87561,6.14441 21.87561,6.14441l-21.87561,-44.06694z"/>
    <path stroke="null" id="svg_8" fill="url(#B)" d="m330.47065,74.62044l0,37.97053c5.74564,0 21.87561,6.14441 21.87561,6.14441l-21.87561,-44.06694l0,-0.048z"/>
   </g>
  </g>
 </g>
</svg>